<?xml version="1.0" encoding="UTF-8" standalone="no"?>
<svg
   xmlns:dc="http://purl.org/dc/elements/1.1/"
   xmlns:cc="http://creativecommons.org/ns#"
   xmlns:rdf="http://www.w3.org/1999/02/22-rdf-syntax-ns#"
   xmlns:svg="http://www.w3.org/2000/svg"
   xmlns="http://www.w3.org/2000/svg"
   id="svg66"
   xml:space="preserve"
   viewBox="0 0 550 445"
   height="445"
   width="550"
   version="1.1"><metadata
     id="metadata70"><rdf:RDF><cc:Work
         rdf:about=""><dc:format>image/svg+xml</dc:format><dc:type
           rdf:resource="http://purl.org/dc/dcmitype/StillImage" /></cc:Work></rdf:RDF></metadata><defs
     id="defs4"><style
       id="style2"
       type="text/css">@import url(&quot;https://fonts.googleapis.com/css2?family=Days+One:wght@400&quot;);</style></defs><defs
     id="defs6" /><g
     id="icon"
     transform="matrix(0.23 0 0 0.23 110.66 222.5)"><g
       id="g55"
       style=""><g
         id="icon_piece"
         transform="matrix(1 0 0 1 0 -0.03)"><path
           id="path8"
           stroke-linecap="round"
           d="m 468.784 219.851 c 0 93.915 -136.174 227.47 -190.428 276.953 c -12.424 11.331 -31.423 11.331 -43.846 0 c -54.254 -49.483 -190.428 -183.038 -190.428 -276.953 c 0 -117.278 95.073 -212.351 212.351 -212.351 s 212.351 95.073 212.351 212.351 z"
           transform=" translate(-256.43, -256.4)"
           style="stroke: none; stroke-width: 1; stroke-dasharray: none; stroke-linecap: butt; stroke-dashoffset: 0; stroke-linejoin: miter; stroke-miterlimit: 4; fill: rgb(244,124,124); fill-rule: nonzero; opacity: 1;" /></g><g
         id="g13"
         transform="matrix(1 0 0 1 -61.6 -0.03)"><path
           id="path11"
           stroke-linecap="round"
           d="m 180.057 234.101 c 0 -101.116 70.678 -185.716 165.324 -207.116 c -27.058 -12.499 -57.185 -19.485 -88.948 -19.485 c -117.278 0 -212.351 95.073 -212.351 212.351 c 0 93.916 136.174 227.47 190.428 276.954 c 12.424 11.331 31.423 11.331 43.846 0 c 10.473 -9.553 24.006 -22.248 39.016 -37.177 c -61.109 -62.832 -137.315 -155.27 -137.315 -225.527 z"
           transform=" translate(-194.73, -256.4)"
           style="stroke: none; stroke-width: 1; stroke-dasharray: none; stroke-linecap: butt; stroke-dashoffset: 0; stroke-linejoin: miter; stroke-miterlimit: 4; fill: rgb(238,97,97); fill-rule: nonzero; opacity: 1;" /></g><g
         id="g17"
         transform="matrix(1 0 0 1 0 -73.13)"><path
           id="path15"
           stroke-linecap="round"
           d="m 256.433 62.771 c -86.75 0 -157.08 70.33 -157.08 157.08 c 0 23.13 5 45.1 13.99 64.87 l 102.123 18.87 l 150.899 -5.377 l 44.508 -49.542 c 1.73 -9.34 2.64 -18.97 2.64 -28.82 c 0 -86.751 -70.33 -157.081 -157.08 -157.081 z"
           transform=" translate(-256.43, -183.18)"
           style="stroke: none; stroke-width: 1; stroke-dasharray: none; stroke-linecap: butt; stroke-dashoffset: 0; stroke-linejoin: miter; stroke-miterlimit: 4; fill: rgb(223,246,253); fill-rule: nonzero; opacity: 1;" /></g><g
         id="g21"
         transform="matrix(1 0 0 1 -73.37 -74.8)"><path
           id="path19"
           stroke-linecap="round"
           d="m 256.443 62.767 c -86.75 0 -157.08 70.33 -157.08 157.08 c 0 23.13 5 45.1 13.99 64.87 l 84.042 15.529 c -10.783 -23.085 -17.329 -45.569 -17.329 -66.149 c 0 -70.146 34.007 -132.34 86.44 -171.004 c -3.332 -0.211 -6.677 -0.326 -10.063 -0.326 z"
           transform=" translate(-182.93, -181.51)"
           style="stroke: none; stroke-width: 1; stroke-dasharray: none; stroke-linecap: butt; stroke-dashoffset: 0; stroke-linejoin: miter; stroke-miterlimit: 4; fill: rgb(153,230,252); fill-rule: nonzero; opacity: 1;" /></g><g
         id="g25"
         transform="matrix(1 0 0 1 71.61 14.19)"><path
           id="path23"
           stroke-linecap="round"
           d="m 360.083 209.311 c -4.3 -3.44 -10.43 -3.39 -14.68 0.12 l -42.05 34.83 s -59.451 39.779 -57.86 39.314 s 92.783 50.963 92.783 50.963 l 46.987 -24.798 c 12.56 -17.97 21.46 -38.68 25.61 -61.07 z"
           transform=" translate(-328.17, -270.65)"
           style="stroke: none; stroke-width: 1; stroke-dasharray: none; stroke-linecap: butt; stroke-dashoffset: 0; stroke-linejoin: miter; stroke-miterlimit: 4; fill: rgb(151,218,123); fill-rule: nonzero; opacity: 1;" /></g><g
         id="g29"
         transform="matrix(1 0 0 1 -7.12 27.1)"><path
           id="path27"
           stroke-linecap="round"
           d="m 303.353 244.261 l 81.91 65.48 c -28.39 40.62 -75.51 67.19 -128.83 67.19 c -63.62 0 -118.4 -37.82 -143.09 -92.21 l 110.89 -91.83 c 4.25 -3.51 10.38 -3.57 14.68 -0.13 z"
           transform=" translate(-249.3, -283.58)"
           style="stroke: none; stroke-width: 1; stroke-dasharray: none; stroke-linecap: butt; stroke-dashoffset: 0; stroke-linejoin: miter; stroke-miterlimit: 4; fill: rgb(173,225,148); fill-rule: nonzero; opacity: 1;" /></g><g
         id="g33"
         transform="matrix(1 0 0 1 -77.11 46.46)"><path
           id="path31"
           stroke-linecap="round"
           d="m 180.057 234.101 c 0 -1.56 0.027 -3.124 0.06 -4.677 l -66.774 55.296 c 23.203 51.115 72.99 87.595 131.705 91.804 c -36.29 -47.847 -64.991 -99.314 -64.991 -142.423 z"
           transform=" translate(-179.2, -302.97)"
           style="stroke: none; stroke-width: 1; stroke-dasharray: none; stroke-linecap: butt; stroke-dashoffset: 0; stroke-linejoin: miter; stroke-miterlimit: 4; fill: rgb(151,218,123); fill-rule: nonzero; opacity: 1;" /></g><g
         id="g37"
         transform="matrix(1 0 0 1 46.84 -103.32)"><circle
           id="circle35"
           r="22.579"
           cy="0"
           cx="0"
           style="stroke: none; stroke-width: 1; stroke-dasharray: none; stroke-linecap: butt; stroke-dashoffset: 0; stroke-linejoin: miter; stroke-miterlimit: 4; fill: rgb(254,240,86); fill-rule: nonzero; opacity: 1;" /></g><g
         id="g41"
         transform="matrix(1 0 0 1 0 0)"><path
           id="path39"
           stroke-linecap="round"
           d="m 411.891 64.393 c -41.524 -41.525 -96.733 -64.393 -155.458 -64.393 s -113.933 22.868 -155.458 64.393 s -64.393 96.733 -64.393 155.458 c 0 96.196 134.882 229.603 192.874 282.494 c 7.691 7.015 17.333 10.521 26.978 10.521 c 9.643 0 19.289 -3.508 26.978 -10.521 c 57.991 -52.892 192.874 -186.298 192.874 -282.494 c -0.002 -58.725 -22.87 -113.934 -64.395 -155.458 z m -138.589 426.87 c -9.617 8.771 -24.121 8.771 -33.738 0 c -25.212 -22.996 -73.646 -69.286 -114.744 -120.942 c -48.597 -61.082 -73.238 -111.707 -73.238 -150.47 c 0 -112.955 91.896 -204.851 204.851 -204.851 s 204.851 91.896 204.851 204.851 c 0 38.763 -24.641 89.388 -73.238 150.47 c -41.098 51.656 -89.531 97.946 -114.744 120.942 z"
           transform=" translate(-256.43, -256.43)"
           style="stroke: none; stroke-width: 1; stroke-dasharray: none; stroke-linecap: butt; stroke-dashoffset: 0; stroke-linejoin: miter; stroke-miterlimit: 4; fill: rgb(0,0,0); fill-rule: nonzero; opacity: 1;" /></g><g
         id="g45"
         transform="matrix(1 0 0 1 -22.59 -36.52)"><path
           id="path43"
           stroke-linecap="round"
           d="m 292.613 365.019 c -11.792 2.93 -23.965 4.415 -36.18 4.415 c -58.448 0 -109.166 -33.702 -133.763 -82.688 l 50.594 -41.9 c 3.19 -2.642 3.635 -7.37 0.993 -10.561 c -2.643 -3.188 -7.37 -3.634 -10.56 -0.992 l -47.287 39.161 c -6.171 -16.373 -9.558 -34.099 -9.558 -52.604 c 0 -82.48 67.103 -149.583 149.583 -149.583 c 40.328 0 78.143 15.817 106.48 44.539 c 2.908 2.947 7.657 2.979 10.606 0.071 c 2.949 -2.909 2.98 -7.658 0.071 -10.606 c -31.178 -31.601 -72.785 -49.004 -117.158 -49.004 c -90.751 0 -164.583 73.832 -164.583 164.583 s 73.832 164.583 164.583 164.583 c 13.433 0 26.822 -1.635 39.797 -4.858 c 4.02 -0.998 6.469 -5.066 5.471 -9.087 c -1 -4.019 -5.067 -6.47 -9.089 -5.469 z"
           transform=" translate(-233.8, -219.85)"
           style="stroke: none; stroke-width: 1; stroke-dasharray: none; stroke-linecap: butt; stroke-dashoffset: 0; stroke-linejoin: miter; stroke-miterlimit: 4; fill: rgb(0,0,0); fill-rule: nonzero; opacity: 1;" /></g><g
         id="g49"
         transform="matrix(1 0 0 1 46.79 -8.48)"><path
           id="path47"
           stroke-linecap="round"
           d="m 394.577 130.368 c -2.255 -3.476 -6.901 -4.462 -10.374 -2.208 c -3.475 2.255 -4.463 6.899 -2.208 10.374 c 15.715 24.212 24.021 52.331 24.021 81.316 c 0 5.333 -0.284 10.637 -0.841 15.894 l -40.409 -32.295 c -7.043 -5.63 -17.198 -5.541 -24.144 0.21 l -37.356 30.937 l -59.671 -47.69 c -7.044 -5.628 -17.198 -5.539 -24.143 0.211 l -31.14 25.789 c -3.19 2.642 -3.635 7.37 -0.993 10.561 s 7.37 3.635 10.56 0.992 l 31.14 -25.789 c 1.499 -1.242 3.691 -1.26 5.211 -0.046 l 64.395 51.465 c 0.022 0.018 0.045 0.036 0.067 0.053 l 76.26 60.948 c -14.229 18.47 -32.55 33.409 -53.627 43.574 c -3.731 1.8 -5.297 6.283 -3.498 10.014 c 1.293 2.681 3.971 4.244 6.761 4.244 c 1.093 0 2.203 -0.24 3.252 -0.746 c 27.496 -13.261 50.752 -33.882 67.257 -59.635 c 16.956 -26.457 25.918 -57.126 25.918 -88.69 c 0.001 -31.891 -9.142 -62.833 -26.438 -89.483 z m -11.055 168.369 l -68.287 -54.576 l 34.956 -28.949 c 1.499 -1.24 3.691 -1.262 5.211 -0.046 l 46.971 37.54 c -3.642 16.239 -9.989 31.783 -18.851 46.031 z"
           transform=" translate(-303.31, -247.94)"
           style="stroke: none; stroke-width: 1; stroke-dasharray: none; stroke-linecap: butt; stroke-dashoffset: 0; stroke-linejoin: miter; stroke-miterlimit: 4; fill: rgb(0,0,0); fill-rule: nonzero; opacity: 1;" /></g><g
         id="g53"
         transform="matrix(1 0 0 1 46.84 -103.32)"><path
           id="path51"
           stroke-linecap="round"
           d="m 273.271 152.934 c 0 16.586 13.494 30.079 30.079 30.079 s 30.079 -13.493 30.079 -30.079 s -13.494 -30.079 -30.079 -30.079 s -30.079 13.493 -30.079 30.079 z m 45.159 0 c 0 8.314 -6.765 15.079 -15.079 15.079 s -15.079 -6.765 -15.079 -15.079 s 6.765 -15.079 15.079 -15.079 s 15.079 6.764 15.079 15.079 z"
           transform=" translate(-303.35, -152.93)"
           style="stroke: none; stroke-width: 1; stroke-dasharray: none; stroke-linecap: butt; stroke-dashoffset: 0; stroke-linejoin: miter; stroke-miterlimit: 4; fill: rgb(0,0,0); fill-rule: nonzero; opacity: 1;" /></g></g></g><g
     id="logo-name"
     style=""
     transform="matrix(1.95 0 0 1.95 346.99 223.47)"><linearGradient
       y2="33.89999999999999"
       x2="0"
       y1="0"
       x1="0"
       gradientTransform="matrix(1 0 0 1 -78.06 -16.95)"
       gradientUnits="userSpaceOnUse"
       id="SVGID_2"><stop
         id="stop58"
         style="stop-color:rgb(255,255,255);stop-opacity: 1"
         offset="0%" /></linearGradient><text
       id="text63"
       style="stroke: none; stroke-width: 1; stroke-dasharray: none; stroke-linecap: butt; stroke-dashoffset: 0; stroke-linejoin: miter; stroke-miterlimit: 4; fill: url(#SVGID_2); fill-rule: nonzero; opacity: 1; white-space: pre;"
       font-weight="normal"
       font-style="normal"
       font-size="30"
       font-family="Days One"
       xml:space="preserve"><tspan
         id="tspan61"
         y="9.42"
         x="-78.06">Go Travel</tspan></text>
</g></svg>